PathFileType	4	(X/Y/Z)	Patient4_TMGait_0pt4_02_right_19.trc.trc
DataRate	CameraRate	NumFrames	NumMarkers	Units	OrigDataRate	OrigDataStartFrame	OrigNumFrames
74.468085106383	74.468085106383	5	33	mm	74.468085106383	89	       141
Frame#	Time	Sacral			L.Shoulder			Chest			R.Shoulder			Neck			R.ASIS			L.ASIS			R.Thigh.Superior			R.Thigh.Lateral			R.Thigh.Inferior			R.Patella			L.Thigh.Superior			L.Thigh.Lateral			L.Thigh.Inferior			L.Patella			L.Shank.Superior			L.Shank.Lateral			L.Shank.Inferior			R.Shank.Superior			R.Shank.Lateral			R.Shank.Inferior			R.Heel			R.Midfoot.Superior			R.Midfoot.Lateral			R.Toe			L.Heel			L.Midfoot.Lateral			L.Midfoot.Superior			L.Toe			L.Elbow			L.Wrist			R.Elbow			R.Wrist			
		X1	Y1	Z1	X2	Y2	Z2	X3	Y3	Z3	X4	Y4	Z4	X5	Y5	Z5	X6	Y6	Z6	X7	Y7	Z7	X8	Y8	Z8	X9	Y9	Z9	X10	Y10	Z10	X11	Y11	Z11	X12	Y12	Z12	X13	Y13	Z13	X14	Y14	Z14	X15	Y15	Z15	X16	Y16	Z16	X17	Y17	Z17	X18	Y18	Z18	X19	Y19	Z19	X20	Y20	Z20	X21	Y21	Z21	X22	Y22	Z22	X23	Y23	Z23	X24	Y24	Z24	X25	Y25	Z25	X26	Y26	Z26	X27	Y27	Z27	X28	Y28	Z28	X29	Y29	Z29	X30	Y30	Z30	X31	Y31	Z31	X32	Y32	Z32	X33	Y33	Z33	

89	25.981714285714	885.213026250358	998.948547035468	494.785001395245	1025.777949396247	1425.556657454573	285.097121713040	1150.798465288247	1366.677859672106	433.723666787467	1087.461723329575	1444.881204712108	613.958400179949	1025.201907345536	1491.183558498864	440.663007653105	1123.669634760338	937.807207177508	587.618253093362	1085.062481933537	961.495339310591	316.206882062775	1156.979711374142	731.173912000324	562.133182104719	1079.139791225997	621.887491491129	631.074040845496	1152.151889702455	563.988722849379	550.343482537076	1145.440508538283	458.355083770226	569.611766004364	1157.356757036357	761.152834393601	342.495616096397	1080.604007286615	636.326995453607	285.294758291127	1176.563592548438	567.765867064304	343.609683990946	1184.649974655998	497.574835999726	351.817472191027	1159.908654312086	423.034448893962	343.416583325345	1073.312952023933	307.086059199593	290.746194209332	1129.314056509467	195.841314095814	358.563407141226	1075.756207978570	386.792991815364	579.457351590871	964.130405955902	331.704614032568	645.944651536119	959.525578393514	223.094180811491	592.685209907709	767.840151558990	120.794884091743	570.366785641848	943.666502921623	109.504506667460	607.784513591791	840.905300072553	82.617202536519	644.695448620630	1036.774154249221	35.352748819941	639.316627153184	1005.668818045826	38.346094927683	396.619689044980	1079.990583874193	35.947045698533	316.199769987765	1161.819934110374	97.568377362291	344.729963112606	1291.039878337653	48.598973165408	316.365838279768	955.041046211192	1074.084278579046	190.140132482864	1003.815817942298	816.251068975616	188.936551549828	1176.834594849029	1118.852622884654	748.387325869991	1416.564121009014	1107.463365193330	671.096791057728	
90	25.995142857143	884.042710073976	998.633711757661	491.610297209611	1026.795224078895	1425.586512240869	282.203597855772	1150.184031283952	1366.747033909365	432.170910262729	1085.048880971309	1445.093404436739	611.709160368862	1024.527016075489	1491.322868838288	437.668133266262	1122.165639514169	938.157526159750	586.111088049936	1085.306264145470	961.757072222539	314.478602528900	1161.610409999647	733.817272639955	560.257083366491	1087.467572430927	622.572720485745	629.289904116169	1162.608745470830	566.303564070000	548.828743015118	1157.705763877593	459.342542729925	568.742259278733	1156.433950500091	760.290003221195	341.021386472578	1079.288259670931	636.094354665112	283.867345591860	1174.288565339354	567.021851883497	342.983090788336	1181.831422562396	496.845169748099	351.441769506565	1156.809519108101	422.322284337860	343.007278326995	1069.951889690869	306.707703621057	290.260795213114	1124.819952062879	195.378247515539	358.625325177714	1086.096642155537	388.266425096331	578.545383409167	972.442094920892	337.072066635035	644.798897155921	964.720596222345	228.349144343131	592.489056266788	769.910329694207	135.001494400679	570.111819952435	944.460546851249	113.087335478517	607.822049920733	840.266585901876	92.484072953892	644.492135959808	1032.014077200345	34.427678858565	639.387116163863	1000.166940485542	38.294250760053	396.573339585237	1074.490284616098	35.873429314466	316.156565845466	1156.392033137247	97.370263026627	344.820525669062	1285.612568742899	48.253086330797	316.368971789362	962.255029408095	1073.513571715670	184.163323951569	1018.701415625845	817.159985052589	182.038999131152	1168.233063914663	1117.256183417767	746.795394516528	1407.845768392677	1093.186891822649	670.606924775379	
91	26.008571428571	882.745345628944	998.199949502239	488.534777439748	1027.765679810402	1425.546813488401	279.510227782985	1149.463692742156	1366.730766762604	430.840829212360	1082.459811614246	1445.129853437714	609.688628787074	1023.776637376873	1491.393647190781	434.857986407337	1120.585253078370	938.452234200825	584.711513593519	1085.462165507793	961.981605911885	312.851986610586	1166.162216394240	736.727883042563	558.403024413758	1095.890657637438	623.601181420309	627.661769088619	1173.062234125791	569.077874675700	547.453124163836	1170.084170556014	460.929776332400	567.866140427685	1155.483964113679	759.477793107683	339.789840474202	1078.109761499898	635.867465037613	282.485275147007	1172.130248147835	566.311980237105	342.427532761842	1179.129480361012	496.103742939276	351.087047380414	1153.797000370804	421.586173950804	342.616058615346	1066.651221857366	306.327495981741	289.764543289847	1120.340986566515	194.904442495046	358.681141139519	1096.760355978958	390.184456492693	577.635837442334	981.308013541172	342.761241412804	643.706336331891	970.531996108652	234.064604074882	592.281946696324	773.095314016505	149.926726284700	569.793090780130	945.886387334784	117.303872315239	607.920946365253	840.451687307214	103.119440269432	644.245138673725	1027.476663546281	33.447866652867	639.410933509854	994.684898875107	38.248692264865	396.521748740120	1069.011756224323	35.815399534749	316.109775731439	1150.989390097051	97.185651939824	344.911335089273	1280.207710759525	47.909718584071	316.371059620970	969.773517386231	1073.076678964067	178.160564470211	1034.199071625783	818.507905306370	175.181101863112	1159.076680305393	1115.382907022729	745.164870090531	1398.011791226696	1078.059300849519	670.591086344965	
92	26.022000000000	881.366157694822	997.684921113012	485.567766984093	1028.639285529531	1425.457790552616	277.039654235388	1148.634484148542	1366.668161892905	429.723863762368	1079.723919200516	1445.016454428959	607.901199532119	1022.958344983632	1491.416424970630	432.265510721223	1118.969471503627	938.720020061396	583.406042399349	1085.549889612604	962.182708698374	311.319454666331	1170.515620119008	739.886217464142	556.592480711420	1104.199573455828	625.005183090684	626.199981159197	1183.292726931003	572.317068792721	546.235664350510	1182.364805043692	463.116165441561	567.019395056949	1154.555484798480	758.731227377329	338.701356963417	1077.020271901019	635.635640557016	281.156836271030	1170.089706327908	565.625588651906	341.873904517021	1176.557224952287	495.360786892094	350.723161358633	1150.882702004786	420.834418231620	342.228582771222	1063.409146713513	305.957314008101	289.259057635001	1115.880673750679	194.428795319492	358.724594765071	1107.541004432419	392.554979394665	576.756914293239	990.527902745722	348.696064465270	642.687934146218	976.852502993023	240.134290256739	592.078198146724	777.336877355853	165.161211448852	569.445556950371	947.971684936450	122.074068780626	608.067594611341	841.518521967407	114.210270452624	643.951678910026	1023.364375220895	32.479173626688	639.324212347008	989.233879161579	38.213313796099	396.462959434842	1063.565234778630	35.774899924790	316.056957084633	1145.618912830948	97.023420446556	344.993554046521	1274.831521810807	47.587114573971	316.364080294912	977.583545659684	1072.793982308351	172.205336388993	1050.232899941613	820.341367925154	168.421087573092	1149.386538490445	1113.265769773569	743.454994497741	1386.989223557771	1062.142412299080	671.089161997268	
93	26.035428571429	879.954794219157	997.134938956278	482.716110569589	1029.383563380086	1425.351191461218	274.804107993183	1147.702410853523	1366.604299166923	428.806169339595	1076.873992148128	1444.788986016142	606.342984003291	1022.087914469164	1491.416593446544	429.919224078572	1117.351915045215	938.995349424289	582.184433439352	1085.592021185255	962.373401433110	309.878742502668	1174.573856644044	743.264162291537	554.854768065026	1112.208474592881	626.797013799479	624.913489997873	1193.111187818651	576.005673072112	545.191229454453	1194.358088493765	465.879568154586	566.240454406723	1153.679555301762	758.048639400971	337.668048981360	1075.959881731302	635.391053904900	279.895572859801	1168.141622349351	564.948877694113	341.283159996033	1174.096800752812	494.623226355393	350.341332876262	1148.051178150304	420.076481619498	341.843852367366	1060.205862078566	305.605962777252	288.754937221462	1111.431167080041	193.959445532332	358.757047255276	1118.252460203917	395.364357140175	575.943029005443	999.912030642387	354.775308428857	641.763865665704	983.589107186339	246.413158189838	591.895896311573	782.543501708471	180.209466155276	569.118955329895	950.765761221184	127.243562052795	608.224571095559	843.529967754272	125.355094651975	643.618871909006	1019.965713300845	31.610545309324	639.053926977142	983.815262626014	38.189805593462	396.396657820526	1058.152187700013	35.751372869722	315.998042205585	1140.279601221432	96.887448922891	345.062731601427	1269.482245268067	47.296792751251	316.344602656273	985.651580876712	1072.698962252420	166.372204885778	1066.714827027913	822.716600354818	161.820785578471	1139.202113362587	1110.963975535735	741.634708877049	1374.709133670177	1045.522722593199	672.122178548110	
